<svg
    xmlns="http://www.w3.org/2000/svg"
    viewBox="0 0 1000 1000"
    width="1000"
    height="1000"
>
    <path
        fill="#000"
        fill-rule="evenodd"
        d="M 500 35
            A 465 465 0 0 1 876 226
            L 895 247
            L 895 281
            A 444 444 0 0 1 895 719
            L 895 753
            L 876 774
            A 465 465 0 0 1 742 895
            L 705 915
            L 655 915
            A 465 465 0 0 1 345 915
            L 295 915
            L 242 895
            A 465 465 0 0 1 35 500
            A 465 465 0 0 1 500 35
            Z

            M 500 56
            A 444 444 0 0 1 875 263
            A 431 431 0 0 1 875 737
            A 444 444 0 0 1 705 894
            L 659 894
            A 444 444 0 0 1 341 894
            A 444 444 0 0 1 56 500
            A 444 444 0 0 1 500 56
            Z"
    />
</svg>